<svg xmlns="http://www.w3.org/2000/svg" xmlns:xlink="http://www.w3.org/1999/xlink" width="500" zoomAndPan="magnify" viewBox="0 0 375 374.999991" height="500" preserveAspectRatio="xMidYMid meet" version="1.0"><defs><clipPath id="65d53d84c4"><path d="M 40.320312 40.320312 L 334.320312 40.320312 L 334.320312 334.320312 L 40.320312 334.320312 Z M 40.320312 40.320312 " clip-rule="nonzero"/></clipPath></defs><g clip-path="url(#65d53d84c4)"><path fill="#7fc2f5" d="M 117.601562 187.496094 C 117.601562 225.871094 149.089844 257.359375 187.464844 257.359375 C 223.308594 257.359375 253.152344 229.871094 256.917969 194.910156 L 156.625 194.910156 C 156.625 173.546875 173.929688 156.242188 195.292969 156.242188 L 296 156.242188 L 296 187.4375 C 296 247 247.03125 295.914062 187.523438 295.914062 C 127.960938 295.914062 79.046875 246.941406 79.046875 187.4375 C 79.046875 127.871094 128.019531 78.960938 187.523438 78.960938 L 334.671875 78.960938 C 334.613281 57.652344 317.308594 40.347656 295.941406 40.347656 L 187.464844 40.347656 C 106.179688 40.347656 40.320312 106.210938 40.320312 187.496094 C 40.320312 268.777344 106.179688 334.640625 187.464844 334.640625 C 268.75 334.640625 334.613281 268.777344 334.613281 187.496094 L 334.613281 117.628906 L 187.464844 117.628906 C 149.089844 117.628906 117.601562 149.117188 117.601562 187.496094 Z M 117.601562 187.496094 " fill-opacity="1" fill-rule="nonzero"/></g></svg>